<svg width="147" height="130" viewBox="0 0 147 130" fill="none" xmlns="http://www.w3.org/2000/svg">
<line x1="2.5" y1="130" x2="2.5" stroke="#D2252B" stroke-width="5"/>
<line x1="147" y1="2.5" x2="1" y2="2.5" stroke="#D2252B" stroke-width="5"/>
<line y1="56.5" x2="109" y2="56.5" stroke="#D2252B" stroke-width="5"/>
<line x1="106.955" y1="57.5613" x2="144.955" y2="3.56127" stroke="#D2252B" stroke-width="5"/>
<path d="M5 5H141L106.5 54H5V5Z" fill="white"/>
<path d="M31.4023 35.5469H24.2539L22.6484 40H20.3281L26.8438 22.9375H28.8125L35.3398 40H33.0312L31.4023 35.5469ZM24.9336 33.6953H30.7344L27.8281 25.7148L24.9336 33.6953ZM42.0664 32.3359H39.9922V40H37.7422V22.9375H39.9922V30.4609H41.75L47.7148 22.9375H50.5156L44 31.2109L50.9961 40H48.2422L42.0664 32.3359ZM62.4805 35.5469H55.332L53.7266 40H51.4062L57.9219 22.9375H59.8906L66.418 40H64.1094L62.4805 35.5469ZM56.0117 33.6953H61.8125L58.9062 25.7148L56.0117 33.6953ZM81.125 34.5859C80.9141 36.3906 80.2461 37.7852 79.1211 38.7695C78.0039 39.7461 76.5156 40.2344 74.6562 40.2344C72.6406 40.2344 71.0234 39.5117 69.8047 38.0664C68.5938 36.6211 67.9883 34.6875 67.9883 32.2656V30.625C67.9883 29.0391 68.2695 27.6445 68.832 26.4414C69.4023 25.2383 70.207 24.3164 71.2461 23.6758C72.2852 23.0273 73.4883 22.7031 74.8555 22.7031C76.668 22.7031 78.1211 23.2109 79.2148 24.2266C80.3086 25.2344 80.9453 26.6328 81.125 28.4219H78.8633C78.668 27.0625 78.2422 26.0781 77.5859 25.4688C76.9375 24.8594 76.0273 24.5547 74.8555 24.5547C73.418 24.5547 72.2891 25.0859 71.4688 26.1484C70.6562 27.2109 70.25 28.7227 70.25 30.6836V32.3359C70.25 34.1875 70.6367 35.6602 71.4102 36.7539C72.1836 37.8477 73.2656 38.3945 74.6562 38.3945C75.9062 38.3945 76.8633 38.1133 77.5273 37.5508C78.1992 36.9805 78.6445 35.9922 78.8633 34.5859H81.125ZM84.2773 22.9375H86.5391V38.1602H94.9531V22.9375H97.2031V38.1133H98.9961L98.7852 44.1133H96.7578V40H84.2773V22.9375Z" fill="black"/>
</svg>
