<svg width="131" height="130" viewBox="0 0 131 130" fill="none" xmlns="http://www.w3.org/2000/svg">
<path d="M5 5L127.5 15V42.5L5 54V5Z" fill="white"/>
<line x1="2.5" y1="130" x2="2.5" stroke="#D2252B" stroke-width="5"/>
<line x1="130.77" y1="14.4894" x2="0.770203" y2="2.48942" stroke="#D2252B" stroke-width="5"/>
<line x1="0.747393" y1="56.5128" x2="128.747" y2="43.5128" stroke="#D2252B" stroke-width="5"/>
<line x1="128.5" y1="46" x2="128.5" y2="12" stroke="#D2252B" stroke-width="5"/>
<path d="M32.4023 32.5469H25.2539L23.6484 37H21.3281L27.8438 19.9375H29.8125L36.3398 37H34.0312L32.4023 32.5469ZM25.9336 30.6953H31.7344L28.8281 22.7148L25.9336 30.6953ZM51.668 37H49.4062V21.7891H40.9922V37H38.7422V19.9375H51.668V37ZM68.3203 31.5859C68.1094 33.3906 67.4414 34.7852 66.3164 35.7695C65.1992 36.7461 63.7109 37.2344 61.8516 37.2344C59.8359 37.2344 58.2188 36.5117 57 35.0664C55.7891 33.6211 55.1836 31.6875 55.1836 29.2656V27.625C55.1836 26.0391 55.4648 24.6445 56.0273 23.4414C56.5977 22.2383 57.4023 21.3164 58.4414 20.6758C59.4805 20.0273 60.6836 19.7031 62.0508 19.7031C63.8633 19.7031 65.3164 20.2109 66.4102 21.2266C67.5039 22.2344 68.1406 23.6328 68.3203 25.4219H66.0586C65.8633 24.0625 65.4375 23.0781 64.7812 22.4688C64.1328 21.8594 63.2227 21.5547 62.0508 21.5547C60.6133 21.5547 59.4844 22.0859 58.6641 23.1484C57.8516 24.2109 57.4453 25.7227 57.4453 27.6836V29.3359C57.4453 31.1875 57.832 32.6602 58.6055 33.7539C59.3789 34.8477 60.4609 35.3945 61.8516 35.3945C63.1016 35.3945 64.0586 35.1133 64.7227 34.5508C65.3945 33.9805 65.8398 32.9922 66.0586 31.5859H68.3203ZM84.5273 29.0195C84.5273 30.6914 84.2461 32.1523 83.6836 33.4023C83.1211 34.6445 82.3242 35.5938 81.293 36.25C80.2617 36.9062 79.0586 37.2344 77.6836 37.2344C76.3398 37.2344 75.1484 36.9062 74.1094 36.25C73.0703 35.5859 72.2617 34.6445 71.6836 33.4258C71.1133 32.1992 70.8203 30.7812 70.8047 29.1719V27.9414C70.8047 26.3008 71.0898 24.8516 71.6602 23.5938C72.2305 22.3359 73.0352 21.375 74.0742 20.7109C75.1211 20.0391 76.3164 19.7031 77.6602 19.7031C79.0273 19.7031 80.2305 20.0352 81.2695 20.6992C82.3164 21.3555 83.1211 22.3125 83.6836 23.5703C84.2461 24.8203 84.5273 26.2773 84.5273 27.9414V29.0195ZM82.2891 27.918C82.2891 25.8945 81.8828 24.3438 81.0703 23.2656C80.2578 22.1797 79.1211 21.6367 77.6602 21.6367C76.2383 21.6367 75.1172 22.1797 74.2969 23.2656C73.4844 24.3438 73.0664 25.8438 73.043 27.7656V29.0195C73.043 30.9805 73.4531 32.5234 74.2734 33.6484C75.1016 34.7656 76.2383 35.3242 77.6836 35.3242C79.1367 35.3242 80.2617 34.7969 81.0586 33.7422C81.8555 32.6797 82.2656 31.1602 82.2891 29.1836V27.918Z" fill="black"/>
</svg>
