<svg width="126" height="69" viewBox="0 0 126 69" fill="none" xmlns="http://www.w3.org/2000/svg">
<rect x="3" y="3" width="120" height="63" fill="white" stroke="#E52029" stroke-width="6"/>
<path d="M108 44.5C108 45.3539 107.382 46.6067 105.183 48.1003C103.051 49.5479 99.8354 50.9306 95.6819 52.1237C87.4018 54.502 75.8464 56 63 56C50.1536 56 38.5982 54.502 30.3181 52.1237C26.1646 50.9306 22.9487 49.5479 20.8171 48.1003C18.6177 46.6067 18 45.3539 18 44.5C18 43.6461 18.6177 42.3933 20.8171 40.8997C22.9487 39.4521 26.1646 38.0694 30.3181 36.8763C38.5982 34.498 50.1536 33 63 33C75.8464 33 87.4018 34.498 95.6819 36.8763C99.8354 38.0694 103.051 39.4521 105.183 40.8997C107.382 42.3933 108 43.6461 108 44.5Z" stroke="#E52029" stroke-width="4"/>
<path d="M53 42C53 42 48.4333 41.8766 46 40.5C44.4331 39.6136 42.5 37.5 42.5 37.5C41.5 36.1667 39.5 33.4 39.5 33C39.5 32.6 38.5 29.1667 38 27.5C38.3333 25.8333 39 22.4 39 22C39 21.5 40.5 18 40.5 17.5C40.5 17.1 42.1667 14.6667 43 13.5L47 11V12.5C46.6667 13.5 46 15.6 46 16C46 16.5 45 20 45 20.5C45 21 46.5 23.5 47 24.5C47.5 25.5 50 25.5 50.5 25.5C50.9 25.5 52.6667 23.8333 53.5 23C54.5 22 56.6 20 57 20C57.5 20 58 16.5 58 16C58 15.6 56.6667 12.1667 56 10.5H59C60.6667 11.3333 64.1 13.1 64.5 13.5C64.9 13.9 66 14.6667 66.5 15L68.5 18C68.6667 19.1667 69 21.6 69 22C69 22.4 70 24.5 70.5 25.5L73 23L75 18L76 13L77.5 13.5L80.5 15.5L82.5 18.5L83 21.5L84 24L86.5 22.5L89.5 19.5L92.5 16.5C92.8333 17.5 93.5 19.6 93.5 20V23.5C93.5 24 92.5 27.5 92.5 28C92.5 28.4 90.5 31.1667 89.5 32.5L85.5 35.5C84.3333 36 81.9 37.1 81.5 37.5C81.1 37.9 78.5 38.6667 77 39L73.5 40.5L71 41L66 41.5L60.5 42H53Z" fill="#E52029"/>
</svg>
