<svg width="147" height="130" viewBox="0 0 147 130" fill="none" xmlns="http://www.w3.org/2000/svg">
<path d="M5 54H141L106.5 5H5V54Z" fill="white"/>
<line x1="2.5" y1="130" x2="2.5" stroke="#D2252B" stroke-width="5"/>
<line y1="-2.5" x2="146" y2="-2.5" transform="matrix(-1 0 0 1 147 59)" stroke="#D2252B" stroke-width="5"/>
<line y1="-2.5" x2="135" y2="-2.5" transform="matrix(-1 0 0 1 138 50)" stroke="#D2252B" stroke-width="5"/>
<line y1="-2.5" x2="109" y2="-2.5" transform="matrix(1 0 0 -1 0 0)" stroke="#D2252B" stroke-width="5"/>
<line y1="-2.5" x2="115" y2="-2.5" transform="matrix(1 0 0 -1 0 10)" stroke="#D2252B" stroke-width="5"/>
<line y1="-2.5" x2="66.0303" y2="-2.5" transform="matrix(0.575493 0.817806 0.817806 -0.575493 109 0)" stroke="#D2252B" stroke-width="5"/>
<path d="M32.5625 24.7891H24.3359V40H22.0742V22.9375H32.5625V24.7891ZM41.1992 32.8398L45.125 22.9375H47.7383L41.7031 37.1523C41.2969 38.0586 40.918 38.7031 40.5664 39.0859C40.2148 39.4609 39.8008 39.75 39.3242 39.9531C38.8555 40.1484 38.2656 40.2461 37.5547 40.2461C36.9375 40.2461 36.543 40.2109 36.3711 40.1406L36.4414 38.3594L37.5078 38.4062C38.3281 38.4062 38.9375 38.0117 39.3359 37.2227L39.6289 36.6133L40.0742 35.5703L34.2617 22.9375H36.7812L41.1992 32.8398ZM59.293 22.9375L64.8711 36.8594L70.4492 22.9375H73.3672V40H71.1172V33.3555L71.3281 26.1836L65.7266 40H64.0039L58.4141 26.2188L58.6367 33.3555V40H56.3867V22.9375H59.293ZM89.375 22.9375V40H87.1133V32.9336C86.293 33.168 85.5469 33.332 84.875 33.4258C84.2031 33.5117 83.4375 33.5547 82.5781 33.5547C80.6328 33.5547 79.1875 33.1328 78.2422 32.2891C77.2969 31.4453 76.8125 30.1523 76.7891 28.4102V22.9375H79.0508V28.3516C79.0586 29.5391 79.3281 30.3945 79.8594 30.918C80.3984 31.4414 81.3047 31.7031 82.5781 31.7031C84.0625 31.7031 85.5742 31.4922 87.1133 31.0703V22.9375H89.375ZM105.992 34.5859C105.781 36.3906 105.113 37.7852 103.988 38.7695C102.871 39.7461 101.383 40.2344 99.5234 40.2344C97.5078 40.2344 95.8906 39.5117 94.6719 38.0664C93.4609 36.6211 92.8555 34.6875 92.8555 32.2656V30.625C92.8555 29.0391 93.1367 27.6445 93.6992 26.4414C94.2695 25.2383 95.0742 24.3164 96.1133 23.6758C97.1523 23.0273 98.3555 22.7031 99.7227 22.7031C101.535 22.7031 102.988 23.2109 104.082 24.2266C105.176 25.2344 105.812 26.6328 105.992 28.4219H103.73C103.535 27.0625 103.109 26.0781 102.453 25.4688C101.805 24.8594 100.895 24.5547 99.7227 24.5547C98.2852 24.5547 97.1562 25.0859 96.3359 26.1484C95.5234 27.2109 95.1172 28.7227 95.1172 30.6836V32.3359C95.1172 34.1875 95.5039 35.6602 96.2773 36.7539C97.0508 37.8477 98.1328 38.3945 99.5234 38.3945C100.773 38.3945 101.73 38.1133 102.395 37.5508C103.066 36.9805 103.512 35.9922 103.73 34.5859H105.992Z" fill="black"/>
</svg>
