<svg width="96" height="137" viewBox="0 0 96 137" fill="none" xmlns="http://www.w3.org/2000/svg">
<rect x="15" y="74.5" width="79" height="61" fill="#D2252B" stroke="black" stroke-width="2"/>
<path d="M7 22.5H23.5L27.5 136.5H0L7 22.5Z" fill="black"/>
<rect x="37" y="48.5" width="12" height="25" fill="black"/>
<path d="M64 13.5C64 14.6046 52.8071 11.5 39 11.5C25.1929 11.5 14 16.6046 14 15.5C14 14.3954 25.1929 0 39 0C52.8071 0 64 12.3954 64 13.5Z" fill="black"/>
<path d="M95.5 22.5C92 32 85.5 39 71.5 41.5C55.5 43.4232 46.5 44 41.5 43.4232C46 39.5 54.5 34.5 71.5 31.9232C87 29.5739 87 27.5768 95.5 22.5Z" fill="black"/>
</svg>
